<?xml version="1.0" standalone="no"?>
<!DOCTYPE svg PUBLIC "-//W3C//DTD SVG 20010904//EN"
 "http://www.w3.org/TR/2001/REC-SVG-20010904/DTD/svg10.dtd">
<svg version="1.0" xmlns="http://www.w3.org/2000/svg"
 width="70.000000pt" height="53.000000pt" viewBox="0 0 70.000000 53.000000"
 preserveAspectRatio="xMidYMid meet">
<metadata>
Created by potrace 1.16, written by Peter Selinger 2001-2019
</metadata>
<g transform="translate(0.000000,53.000000) scale(0.100000,-0.100000)"
fill="#000000" stroke="none">
<path d="M279 420 c-1 -5 -2 -14 -3 -19 0 -5 -4 -13 -8 -17 -5 -4 -8 -12 -8
-18 0 -6 5 -4 10 4 8 12 10 9 10 -12 0 -16 -4 -28 -10 -28 -5 0 -10 6 -10 13
0 9 -2 9 -9 -1 -5 -8 -6 -34 -3 -58 4 -36 2 -44 -11 -44 -11 0 -15 6 -11 18 5
18 -5 -1 -41 -80 -22 -47 -19 -70 3 -25 10 21 11 20 11 -10 2 -65 -5 -63 195
-63 128 0 186 4 194 12 12 12 16 95 6 122 -3 9 -14 16 -24 16 -15 0 -17 6 -13
38 4 28 0 43 -16 61 -12 13 -21 19 -21 13 0 -8 -29 -12 -90 -12 -74 0 -91 3
-99 18 -10 16 -10 16 -11 0 0 -10 -4 -18 -9 -18 -12 0 -21 26 -21 62 0 25 3
29 19 25 10 -2 25 -1 32 4 9 6 1 9 -23 9 -21 0 -39 -4 -39 -10z m222 -112 c0
-10 2 -10 6 0 8 19 31 14 38 -8 4 -12 2 -27 -4 -34 -6 -7 -8 -16 -4 -19 3 -4
-2 -7 -11 -7 -10 0 -16 5 -13 13 3 9 -21 12 -104 11 -60 -1 -109 3 -109 7 0 5
-7 6 -15 3 -10 -4 -15 0 -15 11 0 11 5 15 15 11 9 -3 18 1 21 9 8 20 194 22
195 3z m-250 -110 l0 -23 9 23 c9 21 14 22 134 22 109 0 126 -2 135 -17 10
-17 10 -17 11 0 0 22 36 23 44 1 17 -44 -1 -114 -30 -114 -10 0 -13 7 -8 25 8
31 -8 33 -21 3 -10 -22 -15 -23 -130 -23 l-120 0 -12 35 -12 35 0 -38 c-1 -25
-5 -37 -13 -35 -30 10 -33 128 -3 128 9 0 15 -10 16 -22z"/>
</g>
</svg>
